# xmcd
#
# Track frame offsets:
# 150
# 10816
# 26512
# 36726
# 53092
# 65283
# 80446
# 93000
# 106836
# 116126
# 127927
# 137634
# 151897
# 163223
# 177439
# 189381
# 203762
# 216340
# 230204
# 244799
#
# Disc length: 3444 seconds
#
# Revision: 1
# Processed by: cddbd v1.5.2PL0 Copyright (c) Steve Scherf et al.
# Submitted via: Axialis_AX_CDPlayer 2.6
#
DISCID=120d7214
DTITLE=Benny Goodman - Get Happy CD 1 - 4
DYEAR=2005
DGENRE=Jazz
TTITLE0=Get Rhythn In Your Feet (And Music In Your Soul)
TTITLE1=Blue Skies
TTITLE2=Dear Old Southland
TTITLE3=Sometimes I'm Happy
TTITLE4=(You Got Me In Between) The Devil And The Deep Blue Sea
TTITLE5=Good-Bye
TTITLE6=Madhouse
TTITLE7=Get Happy
TTITLE8=I Know That You Know
TTITLE9=The Glory Of Love
TTITLE10=I've Found A New Baby
TTITLE11=Swingtime In The Rockies
TTITLE12=House Hop
TTITLE13=Chloe
TTITLE14=Rosetta
TTITLE15=Roll 'Em
TTITLE16=Camel Hop
TTITLE17=Life Goes To A Party
TTITLE18=One O'Clock Jump
TTITLE19=Oh Boom
EXTD=
EXTT0=
EXTT1=
EXTT2=
EXTT3=
EXTT4=
EXTT5=
EXTT6=
EXTT7=
EXTT8=
EXTT9=
EXTT10=
EXTT11=
EXTT12=
EXTT13=
EXTT14=
EXTT15=
EXTT16=
EXTT17=
EXTT18=
EXTT19=
PLAYORDER=
